<?xml version="1.0" standalone="no"?>
<!DOCTYPE svg PUBLIC "-//W3C//DTD SVG 20010904//EN"
 "http://www.w3.org/TR/2001/REC-SVG-20010904/DTD/svg10.dtd">
<svg version="1.0" xmlns="http://www.w3.org/2000/svg"
 width="50.000000pt" height="50.000000pt" viewBox="0 0 50.000000 50.000000"
 preserveAspectRatio="xMidYMid meet">

<g transform="translate(0.000000,50.000000) scale(0.100000,-0.100000)"
fill="#000000" stroke="none">
<path d="M155 428 c-26 -25 -36 -43 -39 -73 -2 -22 -1 -30 1 -18 4 19 8 21 28
13 16 -6 27 -6 31 1 3 6 10 6 17 1 19 -15 98 -7 147 15 l45 20 -36 36 c-35 35
-41 37 -98 37 -55 0 -65 -3 -96 -32z"/>
<path d="M165 280 c24 -6 26 -8 8 -9 -24 -1 -30 -15 -13 -26 6 -4 17 -2 25 5
9 7 15 8 20 0 3 -5 14 -10 23 -9 14 0 14 2 2 6 -8 4 -21 14 -28 25 -8 10 -24
18 -40 17 l-27 -1 30 -8z"/>
<path d="M256 282 c-2 -4 -1 -14 5 -22 5 -8 9 -10 9 -5 0 6 4 4 9 -4 8 -12 12
-12 24 -2 10 8 17 9 22 1 9 -14 18 -13 41 6 18 14 18 14 -6 3 -18 -9 -25 -9
-28 0 -2 6 -18 11 -35 12 -31 1 -31 1 -7 9 l25 8 -27 1 c-15 1 -29 -3 -32 -7z"/>
<path d="M213 113 c9 -2 25 -2 35 0 9 3 1 5 -18 5 -19 0 -27 -2 -17 -5z"/>
<path d="M225 90 c3 -5 8 -10 11 -10 2 0 4 5 4 10 0 6 -5 10 -11 10 -5 0 -7
-4 -4 -10z"/>
</g>
</svg>
